<svg xmlns="http://www.w3.org/2000/svg" width="88.374" height="88.763" viewBox="0 0 88.374 88.763"><path d="M35.375 24.989h17.623a9.132 9.132 0 0 1 .341-6.69 12.153 12.153 0 0 0-18.3 0 9.133 9.133 0 0 1 .341 6.691zm8.284 63.628c-9.084-5.336-25.8-17.584-26.02-29.8-.248-13.6 15.044-19.775 26.548-8.077 11.5-11.7 26.794-5.53 26.548 8.075-.221 12.221-16.935 24.47-26.02 29.807a1.02 1.02 0 0 1-1.056-.006zM40.613 63.75h-7.31v7.15h7.31v7.31h7.148V70.9h7.31v-7.151h-7.31v-7.31h-7.148zm35.87-30.938a6.146 6.146 0 1 0 6.146 6.146 6.146 6.146 0 0 0-6.146-6.146zm-64.593 0a6.146 6.146 0 1 0 6.146 6.146 6.146 6.146 0 0 0-6.146-6.146zM73.683 57.8h13.58a1.106 1.106 0 0 0 1.083-1.351 12.161 12.161 0 0 0-17.65-8.033 17.611 17.611 0 0 1 2.987 9.384zm-72.573 0h13.58a17.609 17.609 0 0 1 2.987-9.384 12.161 12.161 0 0 0-17.65 8.032A1.106 1.106 0 0 0 1.11 57.8zm19.673-16.884h16.745a1.106 1.106 0 0 0 1.083-1.351 12.157 12.157 0 0 0-19.812-6.537 9.068 9.068 0 0 1 2.2 5.929 9.161 9.161 0 0 1-.216 1.959zm30.062 0H67.59a9.112 9.112 0 0 1 1.984-7.888 12.157 12.157 0 0 0-19.812 6.536 1.106 1.106 0 0 0 1.084 1.352zm10.78-24.989a6.146 6.146 0 1 1-6.146 6.146 6.146 6.146 0 0 1 6.146-6.145zm-34.878 0a6.146 6.146 0 1 1-6.146 6.146 6.146 6.146 0 0 1 6.145-6.145zM44.186 0a6.146 6.146 0 1 1-6.146 6.146A6.146 6.146 0 0 1 44.186 0z" fill="#d7a444" fill-rule="evenodd"/></svg>