<svg xmlns="http://www.w3.org/2000/svg" width="88" height="88" viewBox="0 0 88 88"><g transform="translate(-1.993 -2)" fill="#d7a444"><ellipse data-name="Ellipse 643" cx="2" cy="1.5" rx="2" ry="1.5" transform="translate(64.493 42.5)"/><circle data-name="Ellipse 644" cx="1.5" cy="1.5" r="1.5" transform="translate(70.493 42.5)"/><ellipse data-name="Ellipse 645" cx="1" cy="1.5" rx="1" ry="1.5" transform="translate(68.493 73.5)"/><circle data-name="Ellipse 646" cx="1" cy="1" r="1" transform="translate(68.493 68.5)"/><path data-name="Path 3207" d="M82.66 22.533a7.342 7.342 0 0 0 7.333-7.333V9.333A7.342 7.342 0 0 0 82.66 2h-26.4a7.342 7.342 0 0 0-7.333 7.333V15.2a7.342 7.342 0 0 0 7.333 7.333h3.714l4.888 5.867h-2.736a5.874 5.874 0 0 0-5.867 5.867v4.4c0 .088.019.176.023.264a4.391 4.391 0 0 0-2.957 4.136 5.867 5.867 0 0 0 5.867 5.867h.117a10.267 10.267 0 0 0 4.283 6.948v.386h-1.466A10.278 10.278 0 0 0 51.86 66.533v2.96a4.422 4.422 0 0 0-1.392.2l-2.546.849-2.527.843-1.7-4.253a10.217 10.217 0 0 0-9.536-6.465h-2.833v-.395a10.267 10.267 0 0 0 4.193-6.439 11.71 11.71 0 0 0 4.607-9.3V34.267A1.467 1.467 0 0 0 38.66 32.8H23.286v-5.867h4.4a7.342 7.342 0 0 0 7.333-7.333v-5.867A7.342 7.342 0 0 0 27.686 6.4h-17.6a7.342 7.342 0 0 0-7.333 7.333V19.6a7.342 7.342 0 0 0 7.333 7.333H13.8l5.315 6.377A11.713 11.713 0 0 0 15.4 53.833a10.253 10.253 0 0 0 4.192 6.439v.395h-1.466a10.277 10.277 0 0 0-10.171 8.946A7.333 7.333 0 0 0 1.993 76.8v11.733A1.467 1.467 0 0 0 3.46 90h26.4a1.467 1.467 0 0 0 1.467-1.467V76.8a7.342 7.342 0 0 0-7.333-7.333H10.94a7.347 7.347 0 0 1 7.186-5.867H19.8a5.839 5.839 0 0 0 11.317 0h3.045a7.3 7.3 0 0 1 6.811 4.617l2.21 5.54a1.467 1.467 0 0 0 1.826.848l2.493-.832 1.027 2.749-5.006 1.668a1.478 1.478 0 0 1-1.776-.733l-3.241-6.487a1.467 1.467 0 0 0-2.787.656v16.907A1.467 1.467 0 0 0 37.186 90h51.333a1.467 1.467 0 0 0 1.467-1.467v-5.866a1.467 1.467 0 0 0-1.467-1.467h-1.467V66.533a10.278 10.278 0 0 0-10.266-10.266h-1.467v-.386a10.267 10.267 0 0 0 4.29-6.948h.117a5.867 5.867 0 0 0 5.867-5.867 4.391 4.391 0 0 0-2.957-4.136c0-.088.023-.176.023-.264A10.278 10.278 0 0 0 72.393 28.4H69.46v-5.867zM59.193 46a2.933 2.933 0 0 1-2.933-2.933 1.467 1.467 0 0 1 1.466-1.467h1.467zM15.612 24.525A1.467 1.467 0 0 0 14.486 24h-4.4a4.4 4.4 0 0 1-4.4-4.4v-5.867a4.4 4.4 0 0 1 4.4-4.4h17.6a4.4 4.4 0 0 1 4.4 4.4V19.6a4.4 4.4 0 0 1-4.4 4.4h-5.867a1.467 1.467 0 0 0-1.467 1.467v4.749zm12.781 37.608a2.933 2.933 0 1 1-5.867 0v-.44a10.1 10.1 0 0 0 5.867 0zM25.46 59.2a7.314 7.314 0 0 1-6.14-3.39 11.688 11.688 0 0 0 3.206.456h5.867a11.7 11.7 0 0 0 3.207-.456 7.319 7.319 0 0 1-6.14 3.39zm54.266-17.6h1.467a1.467 1.467 0 0 1 1.467 1.467A2.933 2.933 0 0 1 79.726 46zM78.26 16.667h-4.4a1.467 1.467 0 1 1 0-2.933h4.4a1.467 1.467 0 1 1 0 2.933zm0-8.8h4.4a1.467 1.467 0 1 1 0 2.933h-4.4a1.467 1.467 0 1 1 0-2.933zm-10.267 0h4.4a1.467 1.467 0 1 1 0 2.933h-4.4a1.467 1.467 0 0 1 0-2.933zm-10.267 0h4.4a1.467 1.467 0 1 1 0 2.933h-4.4a1.467 1.467 0 1 1 0-2.933zM51.86 81.2h-13.2v-3.363l.465.928a4.445 4.445 0 0 0 5.327 2.2l6.448-2.153.949-.317zm.293-5.887l-.837.279-1.027-2.747 1.1-.368a1.467 1.467 0 0 1 1.9 1.075 1.6 1.6 0 0 1-1.125 1.759zm26.107-4.38a1.467 1.467 0 1 1-1.467-1.467 1.467 1.467 0 0 1 1.467 1.467zM76.793 59.2c.1 0 .2.026.3.031l.4 2.053a6.314 6.314 0 0 1-1.423 5.33 4.39 4.39 0 1 0 3.143.66 9.25 9.25 0 0 0 1.159-6.552l-.119-.606a7.311 7.311 0 0 1 3.872 6.417V81.2h-13.2a1.467 1.467 0 1 0-2.933 0h-13.2v-4.142a4.313 4.313 0 0 0 0-6.468v-4.057a7.308 7.308 0 0 1 3.039-5.915 10.076 10.076 0 0 0-.22 6.645 4.362 4.362 0 0 0-.323 5.975l1.886 2.241a1.467 1.467 0 0 0 2.067.18l1.123-.943a1.467 1.467 0 1 0-1.886-2.244l-.943-1.123a1.467 1.467 0 0 1 .18-2.067l1.125-.943a1.467 1.467 0 0 1 2.065.18l.943 1.125a1.467 1.467 0 0 0 1.886 2.247l1.123-.943a1.467 1.467 0 0 0 .18-2.067l-1.886-2.247a4.337 4.337 0 0 0-4.987-1.244 7.187 7.187 0 0 1 .817-4.636l.851-1.528c.1 0 .192-.031.293-.031h1.467v1.467a1.467 1.467 0 0 0 .653 1.22l4.4 2.933a1.467 1.467 0 0 0 1.628 0l4.4-2.933a1.467 1.467 0 0 0 .651-1.217V59.2zm-10.267.682v-2.589a10.193 10.193 0 0 0 5.867 0v2.58L69.46 61.83zm10.267-18.348v5.933a7.333 7.333 0 1 1-14.667 0v-5.98a9.657 9.657 0 0 0 6.1-3.53 15.488 15.488 0 0 0 8.564 3.574zm-8.8-24.867H57.726a1.467 1.467 0 1 1 0-2.933h10.267a1.467 1.467 0 1 1 0 2.933z"/><path data-name="Path 3208" d="M10.793 15.2h4.4a1.467 1.467 0 0 0 0-2.933h-4.4a1.467 1.467 0 1 0 0 2.933z"/><path data-name="Path 3209" d="M21.06 15.2h5.867a1.467 1.467 0 0 0 0-2.933H21.06a1.467 1.467 0 1 0 0 2.933z"/><path data-name="Path 3210" d="M23.993 19.6a1.467 1.467 0 0 0-1.467-1.467H10.793a1.467 1.467 0 1 0 0 2.933h11.733a1.467 1.467 0 0 0 1.467-1.466z"/></g></svg>