<svg xmlns="http://www.w3.org/2000/svg" width="73.959" height="88" viewBox="0 0 73.959 88"><g fill="#d7a444"><path data-name="Path 3211" d="M19.336 41.321a18.843 18.843 0 1 0 18.843-18.843 18.843 18.843 0 0 0-18.843 18.843zm18.843 1.191a6.192 6.192 0 0 1-1.573-12.19v-1.593a1.306 1.306 0 1 1 2.612 0v1.514a6.13 6.13 0 0 1 5.11 6.083 1.291 1.291 0 1 1-2.581 0 3.571 3.571 0 1 0-3.566 3.574 6.182 6.182 0 0 1 1.041 12.27v1.557a1.306 1.306 0 0 1-2.612 0v-1.641a6.25 6.25 0 0 1-4.654-6 1.321 1.321 0 1 1 2.642 0 3.583 3.583 0 0 0 3.192 3.552 1.359 1.359 0 0 1 .2-.017 1.316 1.316 0 0 1 .292.034 3.573 3.573 0 0 0-.1-7.144zm0 0"/><path data-name="Path 3212" d="M68.42 69.148l-.031.015-12.12 5.728a9.369 9.369 0 0 1 .169 2.037 1.305 1.305 0 0 1-1.3 1.27h-.037L37.36 77.71a1.306 1.306 0 0 1 .071-2.612l16.308.449a6.733 6.733 0 0 0-6.44-5.594l-10.792-.3a14.209 14.209 0 0 1-6.115-1.58l-1.1-.568a16.59 16.59 0 0 0-16.935.954l-.432 15.7 1.855-.993a8.066 8.066 0 0 1 6.013-.658l18.316 5.141a17.107 17.107 0 0 0 10.482-1.172l25.375-16.414a4.746 4.746 0 0 0-5.539-.918zm0 0"/><path data-name="Path 3213" d="M0 86.889L.641 63.53l9.224.254-.643 23.359zm0 0"/><path data-name="Path 3214" d="M39.407 15.484V1.306a1.306 1.306 0 1 0-2.612 0v14.178a1.306 1.306 0 1 0 2.612 0zm0 0"/><path data-name="Path 3215" d="M50.6 15.484V8.768a1.306 1.306 0 0 0-2.612 0v6.716a1.306 1.306 0 0 0 2.612 0zm0 0"/><path data-name="Path 3216" d="M28.214 15.484V8.768a1.306 1.306 0 1 0-2.612 0v6.716a1.306 1.306 0 0 0 2.612 0zm0 0"/></g></svg>