<svg xmlns="http://www.w3.org/2000/svg" width="82" height="91.786" viewBox="0 0 82 91.786"><g fill="#d7a444"><g data-name="Group 142"><path data-name="Path 3217" d="M72.544 51.172H61.573a3.245 3.245 0 0 0-3.245 3.245v13.127a3.245 3.245 0 0 0-3.245-3.245H44.111a3.244 3.244 0 0 0-3.245 3.245v8.655a3.245 3.245 0 0 0-3.245-3.245H26.649a3.245 3.245 0 0 0-3.245 3.245v8.057a3.245 3.245 0 0 0-3.246-3.245H9.187a3.245 3.245 0 0 0-3.245 3.245v6.16H75.79v-36a3.245 3.245 0 0 0-3.246-3.245zm0 0"/><path data-name="Path 3218" d="M63.068 52.542a1.37 1.37 0 0 1-1.371-1.37V1.37a1.371 1.371 0 0 1 2.742 0v49.8a1.371 1.371 0 0 1-1.371 1.372zm0 0"/><path data-name="Path 3219" d="M23.404 90.42H5.942v-6.16a3.245 3.245 0 0 1 3.245-3.245h10.972a3.245 3.245 0 0 1 3.245 3.245zm0 0"/></g><path data-name="Path 3220" d="M40.866 90.416H23.404V76.199a3.245 3.245 0 0 1 3.245-3.245h10.972a3.245 3.245 0 0 1 3.245 3.245zm0 0"/><path data-name="Path 3221" d="M58.328 90.415H40.866V67.543a3.245 3.245 0 0 1 3.245-3.245h10.972a3.245 3.245 0 0 1 3.245 3.245zm0 0"/><path data-name="Path 3222" d="M75.79 90.415H58.328v-36a3.245 3.245 0 0 1 3.245-3.245h10.971a3.245 3.245 0 0 1 3.246 3.245zm0 0"/><path data-name="Path 3223" d="M80.63 91.786H1.371a1.37 1.37 0 1 1 0-2.741H80.63a1.37 1.37 0 0 1 0 2.741zm0 0"/><path data-name="Path 3224" d="M63.063 14.4h17.563a.59.59 0 0 0 .39-1.033l-4.553-4.018a.589.589 0 0 1 0-.886l4.562-4.017a.59.59 0 0 0-.39-1.034H63.063zm0 0"/><path data-name="Path 3225" d="M64.466 19.542L45.44 29.876c-1.7.922-2.162 2.543-2.754 4.63l-3.787 13.382 5 1.716 4.275-5.517 3.6-10.88 9.575-5.818a7.008 7.008 0 0 0 3.118-7.847zm0 0"/><path data-name="Path 3226" d="M64.466 19.542l-2.2 1.193a7 7 0 0 1-3.237 4.645l-8.725 5.3a2.708 2.708 0 0 0-1.164 1.462l-1.241 3.767a14.121 14.121 0 0 1-8.051 8.632l-.949 3.347 9.272-3.8 3.6-10.88 9.575-5.819a7.008 7.008 0 0 0 3.118-7.847zm0 0"/><path data-name="Path 3227" d="M48.175 44.088l5.479 6.476c.908 1.2 1.7 2.048 1.534 3.37l-1.282 10.359h-3.344l-.874-8.905a1.487 1.487 0 0 0-.891-1.221l-9.899-6.279zm0 0"/><path data-name="Path 3228" d="M38.903 47.888l-.534 9.818a4.322 4.322 0 0 1-.24 1.971l-6.31 13.281h3.547l9.487-12.6a5.136 5.136 0 0 0 .806-2.329l2.515-13.933zm0 0"/><path data-name="Path 3229" d="M47.5 21.665l1.556 3.038a2.9 2.9 0 0 1-1.261 3.909l-1.2.616a2.9 2.9 0 0 1-3.909-1.261l-1.556-3.038a2.9 2.9 0 0 1 1.261-3.909l1.2-.616a2.9 2.9 0 0 1 3.909 1.261zm0 0"/></g></svg>