<svg xmlns="http://www.w3.org/2000/svg" width="124" height="124" viewBox="0 0 124 124"><g data-name="Group 4375"><g data-name="Ellipse 638" fill="#d7a444" stroke="#fbf6ec" stroke-width="10"><circle cx="62" cy="62" r="62" stroke="none"/><circle cx="62" cy="62" r="57" fill="none"/></g><g data-name="Group 138" fill="#fff"><path data-name="Path 3185" d="M36.025 72.711c-4.03 0-7.7-4.225-8.361-9.806-.7-5.892 2.225-11.1 6.512-11.6a6.947 6.947 0 0 1 6.013 2.618 13.92 13.92 0 0 1 1.75 14.806 6.948 6.948 0 0 1-5.238 3.947 5.741 5.741 0 0 1-.676.035zM34.863 53.52a3.593 3.593 0 0 0-.422.025c-3 .354-5.073 4.519-4.533 9.094.516 4.365 3.261 7.81 6.114 7.811a3.564 3.564 0 0 0 .413-.024 4.77 4.77 0 0 0 3.508-2.767 11.674 11.674 0 0 0-1.444-12.242 4.972 4.972 0 0 0-3.635-1.897z"/><path data-name="Path 3186" d="M88.05 72.711a5.738 5.738 0 0 1-.677-.04 6.947 6.947 0 0 1-5.238-3.947 13.92 13.92 0 0 1 1.75-14.806 6.941 6.941 0 0 1 6.014-2.618c4.287.507 7.208 5.712 6.512 11.6-.659 5.585-4.331 9.811-8.361 9.811zm1.162-19.191a4.971 4.971 0 0 0-3.635 1.9 10.864 10.864 0 0 0-2.471 5.914 10.867 10.867 0 0 0 1.024 6.328 4.769 4.769 0 0 0 3.508 2.767c2.99.35 5.987-3.212 6.528-7.787s-1.535-8.74-4.533-9.094a3.6 3.6 0 0 0-.421-.028zm-7.228 7.679z"/><g data-name="Group 136"><path data-name="Path 3187" d="M57.942 96.61a1.132 1.132 0 0 1-1.1-1.4 5.7 5.7 0 0 0 .072-2.849c-.064-.137-.159-.305-.269-.5-.793-1.4-2.12-3.751-.35-8.418 1.761-4.643 1.681-10.962 1.356-13.964-.152-1.406-1.789-4.293-3.1-6.613-1.692-2.986-2.647-4.731-2.6-5.869.009-.2.035-.44.067-.745.5-4.689.019-10.29-8.211-12-7.2-1.493-10.937.277-12.527 1.465a5.024 5.024 0 0 0-2.194 3.3c-.2 2.411 2.326 4.751 2.351 4.774a1.13 1.13 0 0 1-1.52 1.674c-.138-.125-3.378-3.1-3.084-6.635a7.271 7.271 0 0 1 3.094-4.923c2.314-1.729 6.681-3.456 14.34-1.867 4.794.994 7.94 3.364 9.351 7.044a15.894 15.894 0 0 1 .649 7.406c-.027.256-.051.477-.057.608.019.619 1.339 2.949 2.3 4.651 1.564 2.76 3.182 5.614 3.384 7.485.346 3.2.422 9.966-1.49 15.009-1.394 3.676-.471 5.31.2 6.5.127.226.248.439.349.657.719 1.541.186 3.9.072 4.352a1.131 1.131 0 0 1-1.083.858z"/><path data-name="Path 3188" d="M40.447 57.335a1.131 1.131 0 0 1-1.08-1.463c.1-.318 2.468-7.769 7.769-7.173a1.13 1.13 0 1 1-.254 2.247c-3.386-.381-5.336 5.535-5.355 5.594a1.132 1.132 0 0 1-1.08.795z"/><path data-name="Path 3189" d="M56.557 88.824a1.126 1.126 0 0 1-.607-.178c-4.043-2.582-3.708-9.446-3.486-13.988.034-.691.065-1.343.077-1.894.068-3.246-.911-5-2.531-7.917-.218-.392-.445-.8-.68-1.232-2.149-3.939-2.651-8.382-2.982-12.594a14.177 14.177 0 0 0-3.155-7.13 1.131 1.131 0 0 1 1.7-1.493 16.269 16.269 0 0 1 3.708 8.449c.311 3.969.777 8.141 2.712 11.689.232.426.457.829.672 1.215 1.681 3.022 2.9 5.205 2.816 9.063-.012.582-.045 1.25-.079 1.957-.2 4.02-.493 10.1 2.444 11.972a1.13 1.13 0 0 1-.609 2.083z"/></g><g data-name="Group 137"><path data-name="Path 3190" d="M66.113 96.61a1.131 1.131 0 0 1-1.1-.857c-.114-.456-.647-2.812.072-4.352.1-.218.222-.431.35-.657.675-1.193 1.6-2.828.2-6.5-1.912-5.042-1.837-11.807-1.49-15.009.2-1.871 1.82-4.725 3.384-7.485.965-1.7 2.286-4.032 2.3-4.661a12.876 12.876 0 0 0-.057-.6 15.889 15.889 0 0 1 .649-7.406c1.411-3.68 4.557-6.05 9.35-7.044 7.659-1.589 12.025.139 14.34 1.867a7.271 7.271 0 0 1 3.094 4.923c.294 3.53-2.946 6.51-3.084 6.635a1.13 1.13 0 1 1-1.518-1.676c.024-.022 2.55-2.361 2.349-4.772a5.024 5.024 0 0 0-2.194-3.3c-1.59-1.188-5.333-2.957-12.527-1.465-8.229 1.707-8.711 7.308-8.211 12 .033.3.058.545.067.745.052 1.138-.9 2.883-2.6 5.868-1.315 2.32-2.952 5.208-3.1 6.613-.325 3-.4 9.322 1.356 13.964 1.77 4.667.443 7.015-.35 8.418-.11.194-.2.362-.269.5a5.755 5.755 0 0 0 .072 2.848 1.132 1.132 0 0 1-1.1 1.4z"/><path data-name="Path 3191" d="M83.603 57.333a1.131 1.131 0 0 1-1.085-.814c-.017-.06-1.848-5.985-5.232-5.6a1.13 1.13 0 1 1-.254-2.247c5.324-.6 7.565 6.9 7.657 7.217a1.131 1.131 0 0 1-1.086 1.446z"/><path data-name="Path 3192" d="M67.497 88.824a1.13 1.13 0 0 1-.609-2.083c2.938-1.877 2.641-7.952 2.445-11.972a71.117 71.117 0 0 1-.079-1.957c-.08-3.858 1.134-6.041 2.816-9.063.215-.386.439-.789.672-1.215 1.935-3.548 2.4-7.72 2.713-11.689a16.272 16.272 0 0 1 3.712-8.446 1.131 1.131 0 0 1 1.7 1.493 14.174 14.174 0 0 0-3.155 7.13c-.331 4.213-.833 8.656-2.982 12.595-.235.431-.463.84-.681 1.232-1.621 2.912-2.6 4.671-2.531 7.917.011.551.043 1.2.077 1.894.222 4.542.557 11.405-3.486 13.988a1.125 1.125 0 0 1-.612.176z"/></g><path data-name="Path 3193" d="M94.645 58.025a1.13 1.13 0 0 1-.647-2.058c.241-.17 5.931-4.246 3.45-9.491-2.621-5.542-15.249-6.538-18.407-6.308-1.52.11-5.09 1.648-8.239 3-4.378 1.885-7.15 3.03-8.723 3.03-2.775 0-4.93-1.012-8.5-2.689-.513-.24-1.057-.5-1.638-.765a30.223 30.223 0 0 0-12.195-2.575c-3.087-.074-11.955 2.1-13.545 7.4-1.485 4.948 3.614 8.226 3.832 8.363a1.13 1.13 0 0 1-1.2 1.917c-2.354-1.467-6.387-5.639-4.8-10.93 1.989-6.629 11.956-9.1 15.763-9.012a32.4 32.4 0 0 1 13.093 2.784c.586.271 1.133.528 1.649.77 3.4 1.6 5.269 2.474 7.54 2.474 1.22 0 4.732-1.512 7.829-2.846 3.635-1.566 7.069-3.044 8.97-3.182a38.322 38.322 0 0 1 10.293 1.088c5.432 1.324 8.9 3.513 10.321 6.508 2.642 5.585-1.593 10.5-4.2 12.313a1.124 1.124 0 0 1-.646.209z"/><path data-name="Path 3194" d="M45.88 40.779a1.131 1.131 0 0 1-.319-2.215c.06-.018 5.988-1.77 8.482-2.9a18.267 18.267 0 0 1 7.959-1.942c1.328 0 3.565.723 7.105 1.9 3.491 1.163 7.44 2.483 9.446 2.438a1.13 1.13 0 0 1 .05 2.26c-2.386.049-6.367-1.272-10.21-2.553-2.636-.879-5.362-1.787-6.391-1.787a16.226 16.226 0 0 0-7.028 1.742c-2.636 1.191-8.525 2.931-8.774 3a1.134 1.134 0 0 1-.32.057z"/></g></g></svg>