<svg xmlns="http://www.w3.org/2000/svg" width="124" height="124" viewBox="0 0 124 124"><g data-name="Group 4374"><g data-name="Ellipse 639" fill="#d7a444" stroke="#fbf6ec" stroke-width="10"><circle cx="62" cy="62" r="62" stroke="none"/><circle cx="62" cy="62" r="57" fill="none"/></g><path data-name="Path 3196" d="M97.107 48.95a1.114 1.114 0 0 0-2 .982 28.4 28.4 0 0 1 2.7 12.345c0 4.22-.875 12.174-6.738 18.037A9.915 9.915 0 0 1 75.353 68.55a1.085 1.085 0 0 0 .062-.11 9.955 9.955 0 0 1 1.631-2.148 5.942 5.942 0 0 0 .966-1.261l.012-.021c.063-.112.123-.226.179-.342a6.16 6.16 0 0 1 2.187 2.441 1.115 1.115 0 0 0 1.984-1.016 8.051 8.051 0 0 0-3.641-3.668v-.151a5.743 5.743 0 0 0-.059-.821 8.016 8.016 0 0 0 3.7-3.694 1.114 1.114 0 0 0-1.983-1.009 6.013 6.013 0 0 1-2.478 2.6q-.076-.123-.159-.243c-.013-.019-.026-.038-.041-.057a6.086 6.086 0 0 0-.666-.79 9.914 9.914 0 1 1 14.021-14.02c.477.477.937.985 1.367 1.511a1.114 1.114 0 0 0 1.723-1.411 22.967 22.967 0 0 0-1.516-1.675 12.142 12.142 0 0 0-19.043 14.757l-1.507-.527a7.024 7.024 0 0 1-3.784-3.151l-2.081-3.649a6.889 6.889 0 0 1-.9-3.408v-12.8a3.352 3.352 0 0 0-3.165-3.383 3.3 3.3 0 0 0-2.454.915 3.34 3.34 0 0 0-1.03 2.406v12.862a6.891 6.891 0 0 1-.9 3.408l-2.081 3.648a7.025 7.025 0 0 1-3.784 3.151l-1.5.524a12.143 12.143 0 0 0-19.054-14.754c-6.431 6.431-7.391 15.048-7.391 19.613 0 3.962.744 11.538 5.728 17.756a1.114 1.114 0 0 0 1.739-1.393c-4.558-5.69-5.239-12.69-5.239-16.363 0-4.22.875-12.174 6.738-18.037a9.913 9.913 0 1 1 14.02 14.019 6.11 6.11 0 0 0-.665.789l-.04.056q-.084.121-.16.245a6.014 6.014 0 0 1-2.478-2.6 1.114 1.114 0 0 0-1.983 1.016 8.016 8.016 0 0 0 3.7 3.694 5.746 5.746 0 0 0-.059.821v.151a8.049 8.049 0 0 0-3.641 3.668 1.114 1.114 0 1 0 1.983 1.016 6.161 6.161 0 0 1 2.187-2.441c.058.122.121.241.189.359l.026.045a5.953 5.953 0 0 0 .943 1.22 9.953 9.953 0 0 1 1.63 2.147 1.131 1.131 0 0 0 .062.105A9.917 9.917 0 0 1 35.01 81.906a1.114 1.114 0 0 0-1.11 1.932 12.152 12.152 0 0 0 17.652-14.109l.157.049a2.335 2.335 0 0 1 1.644 2.237V90.18a3.324 3.324 0 0 0 6.649 0V72.016a8.956 8.956 0 0 0-6.305-8.583l-.183-.057.586-.2a13.674 13.674 0 0 0 7.368-6.139l.533-.935.533.934A13.674 13.674 0 0 0 69.9 63.17l.588.205-.182.057a8.956 8.956 0 0 0-6.305 8.583V90.18a3.324 3.324 0 0 0 6.649 0V72.016a2.334 2.334 0 0 1 1.644-2.237l.157-.049a12.147 12.147 0 0 0 20.191 12.16c6.431-6.43 7.391-15.048 7.391-19.613a30.639 30.639 0 0 0-2.926-13.327zM57.774 72.016V90.18a1.1 1.1 0 0 1-2.192 0V72.016a4.554 4.554 0 0 0-3.207-4.366l-2.044-.64a12.192 12.192 0 0 0-1.517-1.993l1.175-.411 3.041.952a6.737 6.737 0 0 1 4.744 6.458zm6.694-16.083l-1.309-2.293a1.336 1.336 0 0 0-2.322 0l-1.308 2.293a11.444 11.444 0 0 1-6.161 5.134l-5.774 2.018a3.423 3.423 0 0 1-.1-.809 3.289 3.289 0 0 1 .414-1.623l4.736-1.655a9.254 9.254 0 0 0 4.982-4.148l2.081-3.648a9.123 9.123 0 0 0 1.2-4.512V33.822a1.1 1.1 0 0 1 1.15-1.095 1.141 1.141 0 0 1 1.042 1.157v12.8a9.122 9.122 0 0 0 1.2 4.512l2.069 3.654a9.251 9.251 0 0 0 4.985 4.151l4.74 1.657a3.29 3.29 0 0 1 .413 1.622 3.425 3.425 0 0 1-.1.81l-5.778-2.019a11.446 11.446 0 0 1-6.16-5.138zm7.157 11.717a4.554 4.554 0 0 0-3.206 4.364V90.18a1.1 1.1 0 1 1-2.192 0V72.016a6.737 6.737 0 0 1 4.741-6.456l3.039-.952 1.176.411a12.2 12.2 0 0 0-1.515 1.992z" fill="#fff"/></g></svg>