<svg xmlns="http://www.w3.org/2000/svg" width="124" height="124" viewBox="0 0 124 124"><defs><clipPath id="a"><circle data-name="Ellipse 641" cx="52" cy="52" r="52" transform="translate(1128 1978)" fill="#fff"/></clipPath></defs><g data-name="Group 4371"><g data-name="Ellipse 633" fill="#d7a444" stroke="#fbf6ec" stroke-width="10"><circle cx="62" cy="62" r="62" stroke="none"/><circle cx="62" cy="62" r="57" fill="none"/></g><g data-name="Mask Group 2" transform="translate(-1118 -1968)" clip-path="url(#a)"><g data-name="Group 133" fill="#fff"><path data-name="Path 3162" d="M1212.15 2047.205l-20.476-23.963 1.154-.475a.361.361 0 0 1 .284 0l6 2.714a5.057 5.057 0 1 0 4.172-9.214l-7.827-3.544a4.605 4.605 0 0 0-2.252-.717c-1.735-.223-14.359-1.83-17.129-1.654l-.868-.083a.968.968 0 0 0-.138-.006 2.717 2.717 0 0 1-1.293-.82l-22.064-29.925a1.332 1.332 0 1 0-2.145 1.581l22.095 29.967c.019.026.039.051.059.075a5.433 5.433 0 0 0 4.407 1.881c.041 0 .081-.006.122-.012 1.762-.138 11.123.931 16.671 1.646.042.005.085.009.127.01a1.936 1.936 0 0 1 1.02.333 1.314 1.314 0 0 0 .195.108l7.92 3.586a2.393 2.393 0 1 1-1.974 4.36l-5.995-2.714a3.033 3.033 0 0 0-2.4-.042l-2.854 1.174c-.022.009-.04.023-.06.034a1.288 1.288 0 0 0-.17.1c-.032.021-.062.044-.092.068s-.048.032-.07.052a34.886 34.886 0 0 1-8 5.225c-5.771 2.643-10.531 2.411-14.148-.69a1.332 1.332 0 1 0-1.734 2.023 12.817 12.817 0 0 0 8.563 3.144 20.434 20.434 0 0 0 8.487-2.081 37.273 37.273 0 0 0 7.577-4.764l20.809 24.351a2.393 2.393 0 0 1-3.638 3.109l-14.758-17.271a2.023 2.023 0 1 0-3.076 2.628l17.64 20.643a2.4 2.4 0 0 1-.265 3.374 2.4 2.4 0 0 1-3.374-.265l-17.64-20.642a2.023 2.023 0 1 0-3.076 2.628l14.648 17.145a2.393 2.393 0 0 1-3.639 3.109l-14.645-17.138a2.025 2.025 0 0 0-2.852-.223l-.33.282a2.023 2.023 0 0 0-.224 2.853l9.534 11.157a2.016 2.016 0 0 1-.025 2.685 1.921 1.921 0 0 1-1.471.6 1.963 1.963 0 0 1-1.433-.681l-22.608-26.457c-1.591-1.861-2.867-5.567-2.13-7.556a5.242 5.242 0 0 0-.912-5.2l-24.49-30.942a1.332 1.332 0 1 0-2.089 1.654l24.5 30.96.031.039a2.574 2.574 0 0 1 .457 2.564c-1.144 3.088.46 7.706 2.6 10.212l22.608 26.457a4.632 4.632 0 0 0 6.847.2 4.574 4.574 0 0 0 1.259-3.641l3.338 3.906a5.023 5.023 0 0 0 3.45 1.752q.2.016.406.016a5.043 5.043 0 0 0 5.026-4.658c.007-.1.013-.2.014-.294l.813.952a5.058 5.058 0 1 0 7.69-6.571l-.7-.818q.146.02.293.031a5.057 5.057 0 0 0 4.24-8.323z"/><path data-name="Path 3163" d="M1148.289 1995.823a1.729 1.729 0 1 0-1.73-1.729 1.729 1.729 0 0 0 1.73 1.729z"/><path data-name="Path 3164" d="M1135.472 1986.683a1.729 1.729 0 1 0-1.729-1.729 1.73 1.73 0 0 0 1.729 1.729z"/><path data-name="Path 3165" d="M1157.23 1999.155a1.729 1.729 0 1 0-1.729 1.729 1.729 1.729 0 0 0 1.729-1.729z"/><path data-name="Path 3166" d="M1148.289 2000.88a1.729 1.729 0 1 0 1.729 1.729 1.729 1.729 0 0 0-1.729-1.729z"/><path data-name="Path 3167" d="M1161.323 2004.341a1.729 1.729 0 1 0 1.73 1.729 1.73 1.73 0 0 0-1.73-1.729z"/><path data-name="Path 3168" d="M1152.042 2011.362a1.729 1.729 0 1 0 1.729-1.729 1.73 1.73 0 0 0-1.729 1.729z"/><path data-name="Path 3169" d="M1160.699 2014.134a1.729 1.729 0 1 0 1.729-1.729 1.73 1.73 0 0 0-1.729 1.729z"/><path data-name="Path 3170" d="M1140.439 1996.314a1.729 1.729 0 1 0-1.729-1.729 1.729 1.729 0 0 0 1.729 1.729z"/><path data-name="Path 3171" d="M1144.829 1986.683a1.729 1.729 0 1 0-1.729-1.729 1.73 1.73 0 0 0 1.729 1.729z"/></g></g></g></svg>