<svg xmlns="http://www.w3.org/2000/svg" width="124" height="124" viewBox="0 0 124 124"><g data-name="Group 4373"><g data-name="Ellipse 637" fill="#d7a444" stroke="#fbf6ec" stroke-width="10"><circle cx="62" cy="62" r="62" stroke="none"/><circle cx="62" cy="62" r="57" fill="none"/></g><path d="M90.663 33.524c-3.438-2.088-7.835-1.1-14.288 3.194a23.849 23.849 0 0 1-24.778.36c-3.226-1.895-9.941-5.811-14.187-.632-1.931 2.355-1.382 5.991-.866 9.485.766 5.116.655 5.836-.428 10.436-.922 3.83-1.927 8.167-.078 12.536a8.321 8.321 0 0 0 5.531 5.07 11.268 11.268 0 0 0 8.176-1.2c1.221.834 4.323 2.724 7.425 2.724h.258a8.757 8.757 0 0 0-.281 3.687 25.624 25.624 0 0 0 5.35 11.983.922.922 0 1 0 1.406-1.189 24.289 24.289 0 0 1-4.927-11.062 6.752 6.752 0 0 1 3.226-6.738c3.024-1.95 4.282-1.258 6.844-.267 3.655 1.415 8.665 3.355 11.661.5 1.844-1.742 1.456-6.162.986-11.748-.461-5.356-.959-11.421.8-14.458a.751.751 0 0 0 .041-.088 23.082 23.082 0 0 0 2.549-1.908.922.922 0 0 0-1.208-1.383c-11.463 9.914-32.014 6.319-39.361 1.692a.923.923 0 0 0-.982 1.562 24.686 24.686 0 0 0 4.733 2.212c-.572 1.166-1.572 5.711-.894 6.817a33.01 33.01 0 0 1 3.4 7.061.922.922 0 0 0 .037.152v.045c.784 2.558.784 4.674.037 6.319a6.31 6.31 0 0 1-1.655 2.231 9.4 9.4 0 0 1-7.162 1.272 6.434 6.434 0 0 1-4.3-4c-1.608-3.822-.7-7.67.182-11.395 1.134-4.807 1.244-5.77.456-11.135-.461-3.226-.922-6.319.461-8.043 2.856-3.489 7.373-1.557 11.816 1.042a25.712 25.712 0 0 0 26.732-.406c7.481-4.985 10.601-4.185 12.316-3.152 4.084 2.475 2.263 6.854.226 10.389-2.844 4.922-2.489 8.665-1.907 13.223.512 4.047 1.88 14.8-2.36 18.187-5.531 4.434-11.3 3.881-19.238-1.844a.922.922 0 1 0-1.079 1.493q1.355.977 2.646 1.77c-.283 3.949-.923 10.649-1.439 11.869a.923.923 0 0 0 1.7.719c.7-1.636 1.309-8.909 1.516-11.573 5.992 3.166 11.522 3.443 17.053-.991 5.07-4.033 3.637-15.122 3.033-19.856-.525-4.148-.876-7.646 1.678-12.071 1.318-2.268 5.3-9.163-.853-12.891zM79.551 49.982a4.236 4.236 0 0 1-4.079 2.544h-1.844a.922.922 0 0 0 0 1.844h1.844a6.167 6.167 0 0 0 3.931-1.291c0 2.341.429 7.66.461 7.877a3.744 3.744 0 0 1-3.761 3.489H74.26a.922.922 0 0 0 0 1.844h1.844a5.72 5.72 0 0 0 4.033-1.682c.175 2.991.129 5.641-.71 6.453-2.079 1.968-6.194.484-9.352-.737a9.992 9.992 0 0 1-.843-11.011 6.056 6.056 0 0 0 3.941 1.632.922.922 0 0 0 0-1.844 4.748 4.748 0 0 1-3.627-2.194 6.806 6.806 0 0 1-.636-6.269 32.922 32.922 0 0 0 11.062-3.1 16.859 16.859 0 0 0-.424 2.443zm-12.615.83a8.462 8.462 0 0 0 1.014 7.006 11.9 11.9 0 0 0-.659 11.522 7.107 7.107 0 0 0-4.093.3 11.216 11.216 0 0 0-.521-7.374 7.516 7.516 0 0 0-.461-.807c1.521-2.3 3.06-6.651.765-10.559.415 0 3.1 0 3.955-.088zM53.21 65.224a6.236 6.236 0 0 0 3.226 1.074c.512 0 1-.1.982-.945a.922.922 0 0 0-.922-.9 4.748 4.748 0 0 1-3.931-2.8.212.212 0 0 0-.032-.065 33.991 33.991 0 0 0-3.59-7.457c-.23-.871.728-4.715 1.083-5.3a48.81 48.81 0 0 0 10.642 1.931c2.871 3.378 1.383 7.213.387 9.029a20.9 20.9 0 0 0-2.493-2.512.935.935 0 0 0-1.166 1.461 15.429 15.429 0 0 1 3.614 4.327c1.475 3.074.267 6.78-.088 7.734a9.02 9.02 0 0 0-2.627 2.733c-2.535.608-5.6-1.046-7.089-1.986a8.448 8.448 0 0 0 2.004-6.324z" fill="#fff"/></g></svg>