<svg xmlns="http://www.w3.org/2000/svg" width="124" height="124" viewBox="0 0 124 124"><g data-name="Group 4371"><g data-name="Ellipse 635" fill="#d7a444" stroke="#fbf6ec" stroke-width="10"><circle cx="62" cy="62" r="62" stroke="none"/><circle cx="62" cy="62" r="57" fill="none"/></g><path data-name="Path 2397" d="M86.579 54.779l-.712-.569a17.281 17.281 0 0 1-6.519-13.562v-8.557h-1.93v8.556a19.2 19.2 0 0 0 7.243 15.064l.712.569a17.282 17.282 0 0 1 6.519 13.562v4.067a12.468 12.468 0 0 1-3.855 9.048 23.29 23.29 0 0 0 1.925-9.384c0-10.109-6.058-18.331-13.507-18.331a11.149 11.149 0 0 0-7.586 3.175 10.475 10.475 0 0 1 2.961-5.87 12.415 12.415 0 0 0 3.66-8.834V35.95h-1.925v7.767a10.5 10.5 0 0 1-3.094 7.47 12.415 12.415 0 0 0-3.66 8.834v.752a19.441 19.441 0 0 0-2.437 4.665 19.192 19.192 0 0 0-6.735-10.659l-.712-.569a17.285 17.285 0 0 1-6.519-13.562v-8.557h-1.933v8.556a19.2 19.2 0 0 0 7.242 15.064l.712.569a17.281 17.281 0 0 1 6.519 13.562v4.067a12.468 12.468 0 0 1-3.855 9.048 23.29 23.29 0 0 0 1.925-9.384c0-10.109-6.058-18.331-13.507-18.331a11.149 11.149 0 0 0-7.586 3.175 10.475 10.475 0 0 1 2.961-5.87 12.415 12.415 0 0 0 3.66-8.834V35.95h-1.93v7.767a10.5 10.5 0 0 1-3.094 7.474 12.415 12.415 0 0 0-3.66 8.834v.752a22.026 22.026 0 0 0-3.86 12.801c0 10.113 6.06 18.331 13.508 18.331a11.855 11.855 0 0 0 9.228-4.982l.137-.068a14.4 14.4 0 0 0 6.838-7.245c1.844 7.146 6.851 12.3 12.746 12.3a11.855 11.855 0 0 0 9.228-4.982l.137-.068a14.4 14.4 0 0 0 8-12.945v-4.074a19.2 19.2 0 0 0-7.247-15.067zm-39.069 35.2c-6.385 0-11.577-7.358-11.577-16.4a22.029 22.029 0 0 1 1.159-7.118l1.61 1.612a3.67 3.67 0 0 1 1.081 2.612 5.583 5.583 0 0 0 1.647 3.973l.166.166a3.7 3.7 0 0 1 0 5.224l-1.53 1.53 1.364 1.364 1.53-1.53a5.628 5.628 0 0 0 0-7.946l-.166-.166a3.67 3.67 0 0 1-1.077-2.609 5.583 5.583 0 0 0-1.647-3.973l-2.2-2.2c2.077-4.415 5.628-7.33 9.637-7.33a10.231 10.231 0 0 1 8.234 4.868l-1.986 1.986a4.8 4.8 0 0 0-1.414 3.41v.662a2.913 2.913 0 0 1-.854 2.053l-.632.634a4.791 4.791 0 0 0-1.414 3.41v1.627a2.912 2.912 0 0 1-.848 2.046l-1.763 1.765 1.364 1.364 1.763-1.765a4.8 4.8 0 0 0 1.414-3.41v-1.631a2.913 2.913 0 0 1 .843-2.043l.632-.634a4.8 4.8 0 0 0 1.414-3.41v-.662a2.912 2.912 0 0 1 .848-2.046l1.655-1.655a21.07 21.07 0 0 1 2.317 9.818c0 9.045-5.194 16.4-11.577 16.4zm28.945 0c-6.385 0-11.577-7.358-11.577-16.4a22.029 22.029 0 0 1 1.159-7.118l1.614 1.614a3.67 3.67 0 0 1 1.081 2.612 5.583 5.583 0 0 0 1.647 3.973l.166.166a3.7 3.7 0 0 1 0 5.224l-1.53 1.53 1.364 1.364 1.531-1.521a5.628 5.628 0 0 0 0-7.946l-.166-.166a3.67 3.67 0 0 1-1.081-2.612 5.583 5.583 0 0 0-1.647-3.973l-2.2-2.2c2.077-4.415 5.628-7.33 9.637-7.33a10.231 10.231 0 0 1 8.23 4.86l-1.986 1.986a4.8 4.8 0 0 0-1.414 3.41v.662a2.913 2.913 0 0 1-.852 2.053l-.632.634a4.791 4.791 0 0 0-1.414 3.41v1.627a2.912 2.912 0 0 1-.848 2.046l-1.763 1.765 1.364 1.364 1.764-1.769a4.8 4.8 0 0 0 1.414-3.41v-1.627a2.913 2.913 0 0 1 .849-2.048l.632-.634a4.8 4.8 0 0 0 1.414-3.41v-.662a2.912 2.912 0 0 1 .848-2.046l1.655-1.655a21.071 21.071 0 0 1 2.317 9.818c0 9.045-5.194 16.4-11.577 16.4z" fill="#fff"/></g></svg>