<svg xmlns="http://www.w3.org/2000/svg" width="124" height="124" viewBox="0 0 124 124"><g data-name="Group 4372"><g data-name="Ellipse 636" fill="#d7a444" stroke="#fbf6ec" stroke-width="10"><circle cx="62" cy="62" r="62" stroke="none"/><circle cx="62" cy="62" r="57" fill="none"/></g><path data-name="Path 3195" d="M90.09 52.106c1.72-7.52-7.77-14.1-16.7-12.78-4.3-4.65-13.4-4.75-17.98-.57-6.74-2.37-14.05 1.22-15.84 7.45-6.34 2.02-10.57 7.26-10.57 13.19 0 9.51 10.81 16.5 21.45 13.24a12.762 12.762 0 0 0 10.62 4.18c8.97 2.11 11.63 8.95 11.74 9.24a1 1 0 0 0 .94.65h7.39a.982.982 0 0 0 .9-.57 1 1 0 0 0-.13-1.07 6.942 6.942 0 0 1-1.55-6.85 9.645 9.645 0 0 0 6.09-4.89c4.84-.64 8.55-5.47 8.55-11.32a11.766 11.766 0 0 0-4.91-9.9zm-16.69-6.54a1.5 1.5 0 0 1 0 3 1.5 1.5 0 0 1 0-3zm-31.66 7.88a1.5 1.5 0 0 1 0 3 1.5 1.5 0 0 1 0-3zm45.53 17.67c1.4-5.93-2.11-4.94-1.84-3.4a7.624 7.624 0 0 1-6.05 8.68 1.2 1.2 0 0 0-.74.63 8.617 8.617 0 0 0 .59 7.68H74.4a19.28 19.28 0 0 0-9.27-8.65c-.26-.12-.5-.24-.74-.34a11.983 11.983 0 0 0 7-10.9 1 1 0 1 0-2 0 9.707 9.707 0 0 1-9.86 9.97c-12.25-.4-14.23-17.6-2.59-20.92a3.495 3.495 0 1 0-.25-2 12.689 12.689 0 0 0-7.53 19.07c-16.86 4.34-25.62-16.29-9.97-22.48a9.566 9.566 0 0 0 .48 3.69 3.491 3.491 0 0 0 2.07 6.3c4.73 0 4.6-7.26-.2-6.98-3.2-10.02 12.09-15.98 18.08-7.14a1.001 1.001 0 0 0 1.66-1.12 11.389 11.389 0 0 0-3.85-3.52c5.6-4.07 15.49-1.31 15.86 3.89-4.56.14-4.45 6.99.11 6.99a3.5 3.5 0 0 0 1.89-6.44 6.155 6.155 0 0 0-.62-2.95c14.2-1.01 19.21 14.96 5.32 16.21a3.4 3.4 0 0 0-3.24-2.41c-4.53 0-4.52 6.82 0 6.82a3.4 3.4 0 0 0 3.24-2.41c4.7-.36 7.99-2.71 9.41-5.35a9.959 9.959 0 0 1 3.6 7.97c0 4.38-2.42 8.07-5.73 9.11zm-27.14-20.17a1.5 1.5 0 0 1 0 3 1.5 1.5 0 0 1 0-3zm18.03 7.44a1.415 1.415 0 0 1-2.83 0 1.415 1.415 0 0 1 2.83 0z" fill="#fff"/></g></svg>