<svg xmlns="http://www.w3.org/2000/svg" width="124" height="124" viewBox="0 0 124 124"><g data-name="Group 4370"><g data-name="Ellipse 634" fill="#d7a444" stroke="#fbf6ec" stroke-width="10"><circle cx="62" cy="62" r="62" stroke="none"/><circle cx="62" cy="62" r="57" fill="none"/></g><g data-name="Group 135" fill="#fff"><g data-name="Group 134" transform="translate(25.943 20.653)"><path data-name="Path 3172" d="M26.155 41.503a1.413 1.413 0 0 1 1.155-2.387c9.25.9 9.951.727 10.25.653a2.737 2.737 0 0 0 2.061-1.392 1.8 1.8 0 0 0-.133-1.632 5.376 5.376 0 0 1-.571-2.1c1.666-.051 4.616-.362 6.186-1.835a3.339 3.339 0 0 0 1.091-2.417c.028-1.52-.975-3.646-2.244-6.339-2.035-4.317-4.568-9.69-2.77-12.873a1.1 1.1 0 0 0 .063-.142 28.374 28.374 0 0 0 6.02-7.931 1.1 1.1 0 1 0-2-.913 27.509 27.509 0 0 1-7.094 8.633 30.151 30.151 0 0 1-10.015 5.47 36.947 36.947 0 0 1-13.92 1.527l1.381-3.389A7.648 7.648 0 1 0 1.45 8.665l-.99 2.43a6.224 6.224 0 0 0 .461 5.59 4.005 4.005 0 0 1 .548 2.692l-.107.708a4.353 4.353 0 0 0 7.85 3.177l1.062-1.488a1.101 1.101 0 0 0-1.793-1.279l-1.062 1.488a2.151 2.151 0 0 1-3.879-1.57l.107-.708a6.213 6.213 0 0 0-.851-4.174 4.014 4.014 0 0 1-.3-3.605l.99-2.43a5.445 5.445 0 1 1 10.085 4.108l-1.946 4.777c-.006.014-.007.027-.012.041a.965.965 0 0 0-.032.11.928.928 0 0 0-.023.111c0 .015-.007.028-.009.042s0 .039 0 .058a1.013 1.013 0 0 0 0 .119.97.97 0 0 0 .011.1c.006.036.012.07.021.1a1.035 1.035 0 0 0 .032.1 1.281 1.281 0 0 0 .091.189 1.05 1.05 0 0 0 .059.088q.031.042.066.081a.965.965 0 0 0 .159.145c.03.022.055.04.084.058a1.144 1.144 0 0 0 .106.056c.018.008.033.02.051.027s.027.007.041.012a1.276 1.276 0 0 0 .222.055c.014 0 .027.007.042.009a46.593 46.593 0 0 0 4.688.241 37.711 37.711 0 0 0 11.6-1.74 32.407 32.407 0 0 0 9.549-4.929c-.121 3.668 1.887 7.929 3.583 11.527 1.009 2.141 2.053 4.354 2.034 5.36a1.126 1.126 0 0 1-.4.851c-1.1 1.037-4.117 1.309-5.757 1.239a1.1 1.1 0 0 0-1.148 1.029 9.209 9.209 0 0 0 .717 4.046 3.33 3.33 0 0 1-.347.105c-.494.058-3.274-.091-9.538-.7a3.616 3.616 0 0 0-2.957 6.106l4.528 4.708c-1.7.053-2.552.122-3.044.743a1.259 1.259 0 0 0-.25 1.033c.09.5.3 4.449-1.423 6.2a3.333 3.333 0 0 1-3.113.791 11.028 11.028 0 0 1-4.209-2.172c-.393-.274-.787-.55-1.188-.813L4.11 45.639a1.101 1.101 0 0 0-1.226 1.83l6.831 4.574c-2.058.605-4.017 2.4-6.12 5.6a1.102 1.102 0 1 0 1.841 1.21c1.911-2.906 3.624-4.47 5.236-4.779.877-.169 1.706-.328 5.114 2.054a12.766 12.766 0 0 0 5.123 2.542 5.453 5.453 0 0 0 5.076-1.468c1.946-2.031 2.14-5.507 2.058-7.225.4-.031.9-.046 1.264-.057 1.687-.05 2.453-.1 2.934-.657a1.1 1.1 0 0 0-.042-1.48z"/><path data-name="Path 3173" d="M10.719 16.551h.052a1.1 1.1 0 0 0 1.1-1.051l.1-2.177a3.252 3.252 0 0 0-6.261-1.376l-.239.586a1.101 1.101 0 0 0 2.04.831l.239-.586a1.05 1.05 0 0 1 2.021.444l-.1 2.177a1.1 1.1 0 0 0 1.048 1.152z"/><path data-name="Path 3174" d="M42.96 15.893a1.101 1.101 0 1 0 1.234 1.824 19.852 19.852 0 0 0 7.913-10.675 19.083 19.083 0 0 0 .915-6 1.101 1.101 0 0 0-2.2.1 17.991 17.991 0 0 1-7.862 14.742z"/><path data-name="Path 3175" d="M43.994 39.921a1.1 1.1 0 0 0 1.1 1.1H60.62a1.1 1.1 0 1 0 0-2.2H45.094a1.1 1.1 0 0 0-1.1 1.1z"/><path data-name="Path 3176" d="M44.981 66.488l-8.955-12.683a1.102 1.102 0 1 0-1.8 1.271l8.955 12.683a1.102 1.102 0 1 0 1.8-1.271z"/><path data-name="Path 3177" d="M57.683 57.189l-13.118-8.3a1.101 1.101 0 0 0-1.178 1.861l13.118 8.3a1.101 1.101 0 0 0 1.178-1.861z"/><path data-name="Path 3178" d="M66.054 44.698a1.577 1.577 0 1 0 1.577 1.578 1.578 1.578 0 0 0-1.577-1.578z"/><circle data-name="Ellipse 642" cx="1.577" cy="1.577" r="1.577" transform="translate(52.857 46.569)"/><path data-name="Path 3179" d="M61.93 59.205a1.577 1.577 0 1 0 1.577 1.578 1.577 1.577 0 0 0-1.577-1.578z"/><path data-name="Path 3180" d="M51.587 61.563a1.577 1.577 0 1 0 1.578 1.577 1.577 1.577 0 0 0-1.578-1.577z"/><path data-name="Path 3181" d="M61.93 68.949a1.577 1.577 0 1 0 1.577 1.577 1.577 1.577 0 0 0-1.577-1.577z"/><path data-name="Path 3182" d="M46.671 69.592a1.577 1.577 0 1 0 1.578 1.578 1.577 1.577 0 0 0-1.578-1.578z"/></g><path data-name="Path 3183" d="M16.543 61.79a1.042 1.042 0 0 1-.872-1.612c5.688-8.716 13.275-10.094 18.639-9.711a26.726 26.726 0 0 1 10.275 2.928 1.042 1.042 0 0 1-1.022 1.816 25.048 25.048 0 0 0-9.47-2.671c-6.958-.468-12.569 2.483-16.676 8.777a1.041 1.041 0 0 1-.874.473z"/><path data-name="Path 3184" d="M24.034 68.552a1.042 1.042 0 0 1-.939-1.492c3.506-7.327 8.542-9.27 12.151-9.61a14.92 14.92 0 0 1 7.058 1.068 1.042 1.042 0 0 1-.871 1.894c-.431-.2-10.614-4.666-16.458 7.548a1.042 1.042 0 0 1-.941.592z"/></g></g></svg>