<svg xmlns="http://www.w3.org/2000/svg" width="124" height="124" viewBox="0 0 124 124"><defs><clipPath id="a"><circle data-name="Ellipse 640" cx="52" cy="52" r="52" transform="translate(985 1979)" fill="#d7a444"/></clipPath></defs><g data-name="Group 4370"><g data-name="Ellipse 632" fill="#d7a444" stroke="#fbf6ec" stroke-width="10"><circle cx="62" cy="62" r="62" stroke="none"/><circle cx="62" cy="62" r="57" fill="none"/></g><g data-name="Mask Group 1" clip-path="url(#a)" transform="translate(-975 -1969)"><g data-name="Group 132" fill="#fff"><path data-name="Path 3158" d="M1035.825 2040.405a5.63 5.63 0 0 1-.791-.056c-3.114-.442-5.3-3.388-6.593-5.781-.752-1.4-1.574-1.378-3.217-1.21-1.827.187-4.33.444-6.411-2.98-3.726-6.13 1.649-11.828 5.185-14.679 3.172-2.559 8.438-12.065 13.656-21.958a205.522 205.522 0 0 0 9.709-22.548l.205-.576h13.751l-.8 1.316c-5.484 9.072-12.223 23.965-15.341 31.334-.291.688-.608 1.416-.936 2.172-2.2 5.058-5.214 11.984-3.834 15.262.321.762.785 1.617 1.276 2.522 2.1 3.86 4.964 9.146.062 14.145-1.976 2.017-3.965 3.037-5.921 3.037zm-9.47-8.861a3.748 3.748 0 0 1 3.613 2.2c.9 1.671 2.786 4.529 5.309 4.886 1.634.234 3.394-.6 5.235-2.48 4-4.083 1.692-8.344-.348-12.1-.512-.943-1-1.835-1.35-2.676-1.668-3.962 1.387-10.984 3.842-16.627.327-.75.641-1.473.929-2.156 2.99-7.067 9.3-21.019 14.672-30.239h-9.47a204.016 204.016 0 0 1-9.6 22.2c-6.131 11.622-10.875 19.9-14.1 22.5-3.094 2.5-7.83 7.428-4.791 12.428 1.512 2.487 3.013 2.334 4.752 2.156a12.8 12.8 0 0 1 1.307-.092z"/><path data-name="Path 3159" d="M1019.632 2041.475a10.466 10.466 0 0 1-6.228-2.709c-4.49-3.674-4.346-12.344-3.534-15.02 1.2-3.959 3-4.276 3.963-4.113a2.992 2.992 0 0 1 2.288 2.955c-.036.883-.121 5.465 1.84 8.934a8.465 8.465 0 0 0 2.961 2.755c1.5 1 3.208 2.13 2.537 4.422a3.673 3.673 0 0 1-2.473 2.581 4.562 4.562 0 0 1-1.354.195zm-8.1-17.223c-.759 2.5-.656 10.2 2.972 13.172 2.214 1.811 4.5 2.653 5.971 2.2a1.94 1.94 0 0 0 1.322-1.41c.288-.983-.212-1.413-1.833-2.49a10.106 10.106 0 0 1-3.512-3.346c-2.193-3.88-2.1-8.894-2.063-9.86a1.272 1.272 0 0 0-.845-1.173c-.535-.088-1.364.773-2.012 2.907z"/><path data-name="Path 3160" d="M1055.668 2091.385l-.351-.715c-.073-.149-7.322-14.906-11.431-20.929-6.845-10.032-11.3-14.4-12.659-14.3a2.761 2.761 0 0 0-1.643.67c-.906.679-1.757 1.1-3.733-.15a10.533 10.533 0 0 1-4.128-11.967c.8-2.721 1.922-4.307 3.415-4.848 1.236-.448 2.6-.153 4.187.9 2.165 1.443 4.247 2.076 5.566 1.7a38.659 38.659 0 0 0 8.9-4.632c1.018-.762 3.469-.645 5.353.256a4.942 4.942 0 0 1 3.046 4.368 14.226 14.226 0 0 1-1.627 6.678 11.453 11.453 0 0 0-.916 2.486c-.346 1.9 1.364 6.584 4.461 12.222 2.837 5.165 11.362 19.27 13.893 21.941l.829.875-1.093.508c-3.1 1.441-10.994 4.518-11.328 4.648zm-24.436-37.681c2.53 0 7.267 5.063 14.086 15.056 3.7 5.425 9.678 17.349 11.2 20.426 1.83-.718 6.618-2.611 9.447-3.848-3.318-4.233-10.83-16.741-13.379-21.382-1.6-2.911-5.252-10.04-4.647-13.367a12.825 12.825 0 0 1 1.044-2.885 12.6 12.6 0 0 0 1.475-5.905 3.177 3.177 0 0 0-1.964-2.816 5.165 5.165 0 0 0-3.662-.479 39.737 39.737 0 0 1-9.458 4.909c-1.831.53-4.388-.169-7.011-1.919a3.051 3.051 0 0 0-2.634-.714c-.913.33-1.722 1.613-2.343 3.708a8.794 8.794 0 0 0 3.39 10.008c1.124.71 1.261.608 1.768.228a4.481 4.481 0 0 1 2.542-1.01c.048-.005.097-.01.146-.01z"/><path data-name="Path 3161" d="M1054.595 2046.864c.337.288.725.658 1.027.946a1.825 1.825 0 0 1 .166.177 8.115 8.115 0 0 1-.717.877l-.2.229c-1.286 1.456-.945 3.818 7.75 21.595l.377.772c1.047 2.142 2.237 4.4 3.357 6.453-.659-.932-1.294-1.829-1.829-2.582a119.035 119.035 0 0 1-5.746-10.752c-1.639-3.282-3.055-6.116-3.944-7.578-1.922-3.157-2.557-5.2-1.941-6.237a21.807 21.807 0 0 0 1.705-3.9m-.474-2.162a1.114 1.114 0 0 0-.772.333 23.8 23.8 0 0 1-1.952 4.843c-1.157 1.952-.072 4.7 1.952 8.024s7.446 15.18 9.759 18.433 6.433 9.108 6.433 9.108l2.458-1.084s-4.337-7.3-7.446-13.662-9.469-19.228-8.385-20.457 2.169-2.241.651-3.687c-1.115-1.062-1.957-1.851-2.7-1.851z"/></g></g></g></svg>